<svg xmlns="http://www.w3.org/2000/svg" xmlns:xlink="http://www.w3.org/1999/xlink" width="670" height="430" viewBox="0 0 177.3 113.8">
  <defs>
    <linearGradient id="a">
      <stop style="stop-color:#000;stop-opacity:1" offset="0"/>
      <stop style="stop-color:#9b1a0a;stop-opacity:1" offset="1"/>
    </linearGradient>
    <linearGradient xlink:href="#a" id="b" x1="50.3" y1="316" x2="50.3" y2="246.9" gradientUnits="userSpaceOnUse" gradientTransform="matrix(1 0 0 1.69634 74 -510.3)"/>
    <filter style="color-interpolation-filters:sRGB" id="c" x="0" width="1" y="-.1" height="1.1">
      <feGaussianBlur stdDeviation="4.4"/>
    </filter>
  </defs>
  <g style="display:inline">
    <path style="fill:url(#b);fill-opacity:1;stroke:none;stroke-width:.34357908;stroke-miterlimit:4;stroke-dasharray:none;stroke-opacity:1" d="M0-87.3h177.3v114H0z" transform="translate(0 87.3)"/>
  </g>
  <g style="display:inline">
    <path style="fill:#ef3a0c;fill-opacity:1;stroke:none;stroke-width:1px;stroke-linecap:butt;stroke-linejoin:miter;stroke-opacity:1;filter:url(#c)" d="M-13.6-5.1c-1.4 0-2 .2-1.9.6C-11.8 5.3-14 161.4-9 163.9s-3 3.8 5 13.7c8.2 9.9 26.9 4.3 9.2-2.6 10.7 6-1.6 9.8-3.5-2.6-.8-5.5-1.6-9.3 2.6-13.7 4.1-4.4 6-12 1.4-16.1-4.6-4-3.4-14.7 2.4-16 198.4-43.5 452-52.1 628.4-59.1-131.3 10.8-496-48.2-495.9-54.5.1-6.4 106.3-9.8 121.7-6 15.4 3.9 50 8.6 85 3.3 8.8-1.3 42.6-4 60.9-6.9C426.4.6 446 18.1 423 13.2c21.9 9.5 14-14.7 1.9-15.5C420.3-2.7 110 0 108-1.3c-41 .9-81.4-4-121.7-3.8z" transform="scale(.26458)"/>
    <path d="M-3.6-1.4c-.4 0-.5.1-.5.2 1 2.6.4 43.9 1.7 44.6 1.3.6-.8 1 1.4 3.6 2.1 2.6 7 1.1 2.4-.7 2.8 1.6-.5 2.6-1-.7-.1-1.4-.4-2.5.7-3.6 1.1-1.2 1.6-3.2.4-4.3-1.2-1-.9-3.9.6-4.2C54.6 22 121.8 19.7 168.4 17.9 133.7 20.7 37.2 5 37.2 3.4 37.2 1.8 65.3.8 69.4 2c4 1 13.2 2.2 22.5.8 2.3-.3 11.3-1 16-1.8 5-.7 10.1 3.9 4 2.6 5.8 2.5 3.7-3.9.5-4.1-1.2-.1-83.3.6-83.8.3-10.8.2-21.5-1.1-32.2-1z" style="fill:#ef3a0c;fill-opacity:1;stroke:none;stroke-width:.26458332px;stroke-linecap:butt;stroke-linejoin:miter;stroke-opacity:1;opacity:1"/>
  </g>
  <g style="display:inline">
    <path style="fill:#000;stroke:none;stroke-width:.26458332px;stroke-linecap:butt;stroke-linejoin:miter;stroke-opacity:1" d="M0 114l86.5-.1c45.8-.1 56.4-.1 90.8.2 3.6-32 43.2-106.6-11.6-99.6-1.5.2-5.8-1-6.9-.7-1.5.4-2.6.6-3.3 1 .7-.5 2.4-1.1 3.7-3.1 2-3-8.6-4.8-10.5-3.3 2.9-.3 10.5 2.6 6.4 3.2-2 .2-1 1.2-1.3 1.2-1-.1-1.4-.5-2-.5-.5 0-3-1-3.5-1.3-.5-.4.4 1-3.6 1.8-.3 0-6.4 1.5-7 0l-.2.8c0 .6.3 1.3.7 1.7.1.4.4.7.6 1 0-.6.2-.8.5-1h.3c.1.3 0 .6.4 1.1 0-.5.2-.9.4-1.2h.3c0 .4 0 .7.2 1.2 0-.5.3-.9.5-1.1h.4c0 .4-.1.7.1 1.2 0-.5.4-.9.6-1.1h.5c0 .4-.2.7 0 1.3.1-.6.6-1 1-1.1h.3c0 .5-.3.8 0 1.5.1-.8.7-1.2 1-1.3h.1c0 .5-.3.8-.1 1.5.2-.7.8-1 1.2-1 .4.1.3.4.4.8.2.6.7.8.2 1.7-.2.4-.6.7-1 1-.3-.1-.7-.3-.9-.7 0 .5.2.8.4 1l-.4.3c-.4-.2-.7-.4-1-.9 0 .6.2.8.4 1.1l-.4.2c-.4-.2-.8-.5-1-1-.1.6 0 .8.2 1.2h-.2c-.4-.1-.8-.5-.9-1.1-.2.6 0 1 0 1.3h-.2c-.3-.1-.7-.6-.7-1.3-.3.6-.2 1-.2 1.4-.3-.3-.6-.7-.6-1.3-.3.6-.2.9-.2 1.3-.3-.2-.6-.7-.6-1.3-.3.6-.2 1-.3 1.4-.3-.2-.7-.6-.7-1.3l-.4 1c-1 .6.2 1.6 0 2.5 1.8-.9 5.7-.4 7.1-1.1 2-1 3.9-.9 5.6-1 1.7-.2 1-.7 3-.6 2 .2 9 .9 9.5 1.1 5.4 4.4-35.8 11.7-50 15.3-16 4-21.8-3-21.6 2.4.1-2.6 5 .2 3.3 1.1-1.7 1-5 2.2-6.6 2.8C69.7 50.7 0 92.8 0 114z"/>
  </g>
</svg>
