<svg xmlns="http://www.w3.org/2000/svg" xmlns:xlink="http://www.w3.org/1999/xlink" width="670" height="430" viewBox="0 0 177.3 113.8">
  <defs>
    <linearGradient id="a">
      <stop style="stop-color:#000;stop-opacity:1" offset="0"/>
      <stop style="stop-color:#9b1a0a;stop-opacity:1" offset="1"/>
    </linearGradient>
    <linearGradient xlink:href="#a" id="b" x1="50.3" y1="316" x2="50.3" y2="246.9" gradientUnits="userSpaceOnUse" gradientTransform="matrix(1 0 0 1.69634 74 -510.3)"/>
    <filter height="1.3" y="-.1" width="1.3" x="-.1" style="color-interpolation-filters:sRGB" id="c">
      <feTurbulence type="fractalNoise" baseFrequency=".1" numOctaves="4" result="result0" seed="180.7"/>
      <feDisplacementMap in2="result0" in="SourceGraphic" xChannelSelector="R" yChannelSelector="G" scale="10" result="result2"/>
      <feBlend result="result5" in="result2" mode="multiply" in2="result2"/>
      <feGaussianBlur stdDeviation="10" in="result2" result="result4"/>
      <feComposite operator="arithmetic" in2="result4" in="result0" k3=".5" k1="2" result="result6"/>
      <feComposite operator="in" in2="result5" in="result6" result="result7"/>
    </filter>
    <filter y="-.2" height="1.4" style="color-interpolation-filters:sRGB" id="d">
      <feMorphology radius="7" operator="dilate" result="result8" in="SourceGraphic"/>
      <feComposite in2="result8" result="result10" in="SourceGraphic" operator="arithmetic" k1=".5" k3=".5"/>
      <feTurbulence result="result11" type="fractalNoise" numOctaves="3" baseFrequency=".1"/>
      <feDisplacementMap result="result12" in2="result11" in="result10" xChannelSelector="R" scale="10"/>
      <feComposite operator="arithmetic" result="result13" in="SourceGraphic" in2="result12" k1=".3" k2=".3" k3=".8"/>
    </filter>
  </defs>
  <g style="display:inline">
    <path style="fill:url(#b);fill-opacity:1;stroke:none;stroke-width:.34357908;stroke-miterlimit:4;stroke-dasharray:none;stroke-opacity:1" d="M0-87.3h177.3v114H0z" transform="translate(0 87.3)"/>
  </g>
  <g style="display:inline">
    <path style="opacity:1;fill:#ff660c;fill-opacity:1;stroke:none;stroke-width:.26458332px;stroke-linecap:butt;stroke-linejoin:miter;stroke-opacity:1;filter:url(#c)" d="M-3.6-88.7c-.4 0-.5 0-.5.2 1 2.6.4 43.9 1.7 44.5 1.3.7-.8 1 1.4 3.7 2.1 2.6 7 1.1 2.4-.7 2.8 1.6-.5 2.6-1-.7-.1-1.5-.4-2.5.7-3.6 1.1-1.2 1.6-3.2.4-4.3-1.2-1-.9-3.9.6-4.2 52.5-11.5 119.7-13.8 166.3-15.7-34.7 2.9-131.2-12.7-131.2-14.4 0-1.7 28.1-2.6 32.2-1.6 4 1 13.2 2.3 22.5 1 2.3-.4 11.3-1.2 16-1.9 5-.7 10.1 3.9 4 2.6 5.8 2.5 3.7-3.9.5-4.1-1.2-.1-83.3.6-83.8.3-10.8.2-21.5-1.1-32.2-1z" transform="translate(0 87.3)"/>
    <path d="M-3.6-88.7c-.4 0-.5 0-.5.2 1 2.6.4 43.9 1.7 44.5 1.3.7-.8 1 1.4 3.7 2.1 2.6 7 1.1 2.4-.7 2.8 1.6-.5 2.6-1-.7-.1-1.5-.4-2.5.7-3.6 1.1-1.2 1.6-3.2.4-4.3-1.2-1-.9-3.9.6-4.2 52.5-11.5 112.6-14.7 159.3-16.6-34.7 2.9-124.2-11.8-124.2-13.5 0-1.7 28.1-2.6 32.2-1.6 4 1 13.2 2.3 22.5 1 2.3-.4 11.3-1.2 16-1.9 5-.7 10.1 3.9 4 2.6 5.8 2.5 3.7-3.9.5-4.1-1.2-.1-83.3.6-83.8.3-10.8.2-21.5-1.1-32.2-1z" style="opacity:.67619048;fill:#ff660c;fill-opacity:1;stroke:none;stroke-width:.26458332px;stroke-linecap:butt;stroke-linejoin:miter;stroke-opacity:1;filter:url(#d)" transform="translate(0 87.3)"/>
  </g>
  <g style="display:inline">
    <path style="fill:#000;stroke:none;stroke-width:.26458332px;stroke-linecap:butt;stroke-linejoin:miter;stroke-opacity:1" d="M0 114l86.5-.1c45.8-.1 56.4-.1 90.8.2 3.6-32 43.2-106.6-11.6-99.6-1.5.2-5.8-1-6.9-.7-1.5.4-2.6.6-3.3 1 .7-.5 2.4-1.1 3.7-3.1 2-3-8.6-4.8-10.5-3.3 2.9-.3 10.5 2.6 6.4 3.2-2 .2-1 1.2-1.3 1.2-1-.1-1.4-.5-2-.5-.5 0-3-1-3.5-1.3-.5-.4.4 1-3.6 1.8-.3 0-6.4 1.5-7 0l-.2.8c0 .6.3 1.3.7 1.7.1.4.4.7.6 1 0-.6.2-.8.5-1h.3c.1.3 0 .6.4 1.1 0-.5.2-.9.4-1.2h.3c0 .4 0 .7.2 1.2 0-.5.3-.9.5-1.1h.4c0 .4-.1.7.1 1.2 0-.5.4-.9.6-1.1h.5c0 .4-.2.7 0 1.3.1-.6.6-1 1-1.1h.3c0 .5-.3.8 0 1.5.1-.8.7-1.2 1-1.3h.1c0 .5-.3.8-.1 1.5.2-.7.8-1 1.2-1 .4.1.3.4.4.8.2.6.7.8.2 1.7-.2.4-.6.7-1 1-.3-.1-.7-.3-.9-.7 0 .5.2.8.4 1l-.4.3c-.4-.2-.7-.4-1-.9 0 .6.2.8.4 1.1l-.4.2c-.4-.2-.8-.5-1-1-.1.6 0 .8.2 1.2h-.2c-.4-.1-.8-.5-.9-1.1-.2.6 0 1 0 1.3h-.2c-.3-.1-.7-.6-.7-1.3-.3.6-.2 1-.2 1.4-.3-.3-.6-.7-.6-1.3-.3.6-.2.9-.2 1.3-.3-.2-.6-.7-.6-1.3-.3.6-.2 1-.3 1.4-.3-.2-.7-.6-.7-1.3l-.4 1c-1 .6.2 1.6 0 2.5 1.8-.9 5.7-.4 7.1-1.1 2-1 3.9-.9 5.6-1 1.7-.2 1-.7 3-.6 2 .2 9 .9 9.5 1.1 5.4 4.4-35.8 11.7-50 15.3-16 4-21.8-3-21.6 2.4.1-2.6 5 .2 3.3 1.1-1.7 1-5 2.2-6.6 2.8C69.7 50.7 0 92.8 0 114z"/>
  </g>
</svg>
