<?xml version="1.0" encoding="UTF-8" standalone="no"?>
<svg
   xmlns:dc="http://purl.org/dc/elements/1.1/"
   xmlns:cc="http://creativecommons.org/ns#"
   xmlns:rdf="http://www.w3.org/1999/02/22-rdf-syntax-ns#"
   xmlns:svg="http://www.w3.org/2000/svg"
   xmlns="http://www.w3.org/2000/svg"
   xmlns:xlink="http://www.w3.org/1999/xlink"
   id="svg3723"
   version="1.1"
   viewBox="0 0 177.27083 127"
   height="480"
   width="670">
  <defs
     id="defs3717">
    <linearGradient
       id="linearGradient885">
      <stop
         id="stop881"
         offset="0"
         style="stop-color:#2a1d0d;stop-opacity:1" />
      <stop
         id="stop883"
         offset="1"
         style="stop-color:#9b1a0a;stop-opacity:1" />
    </linearGradient>
    <linearGradient
       gradientTransform="matrix(1,0,0,1.3149503,74.083332,-415.22729)"
       gradientUnits="userSpaceOnUse"
       y2="294.35413"
       x2="50.270832"
       y1="249.37497"
       x1="50.270832"
       id="linearGradient887"
       xlink:href="#linearGradient885" />
  </defs>
  <metadata
     id="metadata3720">
    <rdf:RDF>
      <cc:Work
         rdf:about="">
        <dc:format>image/svg+xml</dc:format>
        <dc:type
           rdf:resource="http://purl.org/dc/dcmitype/StillImage" />
        <dc:title></dc:title>
        <cc:license
           rdf:resource="http://creativecommons.org/publicdomain/zero/1.0/" />
        <dc:creator>
          <cc:Agent>
            <dc:title>@Zaphodious</dc:title>
          </cc:Agent>
        </dc:creator>
      </cc:Work>
      <cc:License
         rdf:about="http://creativecommons.org/publicdomain/zero/1.0/">
        <cc:permits
           rdf:resource="http://creativecommons.org/ns#Reproduction" />
        <cc:permits
           rdf:resource="http://creativecommons.org/ns#Distribution" />
        <cc:permits
           rdf:resource="http://creativecommons.org/ns#DerivativeWorks" />
      </cc:License>
    </rdf:RDF>
  </metadata>
  <g
     style="display:inline"
     transform="translate(0,100.54167)"
     id="layer4">
    <rect
       style="fill:url(#linearGradient887);fill-opacity:1;stroke:none;stroke-width:0.30249947;stroke-miterlimit:4;stroke-dasharray:none;stroke-opacity:1"
       id="rect836"
       width="177.27083"
       height="88.370132"
       x="-3.8954827e-006"
       y="-87.3125" />
  </g>
  <g
     style="display:inline"
     transform="translate(0,100.54167)"
     id="layer3">
    <path
       id="path832"
       d="m 87.218954,-17.164442 c -0.961676,-18.367735 -0.661111,-27.585691 -4.991757,-37.431431 -1.683798,-3.320824 -4.808368,-8.971827 -8.830774,-8.1767 -4.022406,0.795126 -15.683348,-0.415679 -18.770311,-1.07049 -3.086964,-0.65481 -19.508294,-9.955944 -22.876112,-10.240274 -3.367819,-0.28433 -16.93113,2.812331 -19.222967,4.449357 -2.291837,1.637025 -10.940555,22.020859 -7.57296,24.032062 3.367596,2.011203 7.493419,-2.402347 3.788546,-6.454559 3.336557,1.556449 4.396583,3.274052 4.5369,5.004622 0.140316,1.73057 -6.922281,10.897914 -9.9157,10.570509 C 0.3704,-36.808751 0,-42.333335 0,-42.333335 L 8.3482585e-6,-100.54167 H 58.208341 h 47.624989 42.33334 29.10416 l 0,63.500002 c 0,0 -0.93544,3.113555 -3.11355,4.984441 2.31201,-15.621903 -0.26215,-15.088172 -2.17981,-20.186339 -0.8729,-2.320627 -3.29205,-7.872397 -6.94028,-8.293346 -3.64823,-0.42095 -10.47462,0.815757 -14.69723,-2.359929 -4.22262,-3.175686 -8.58749,-5.146475 -16.52499,-7.792308 -7.9375,-2.645834 -15.17941,1.248869 -20.25782,1.496709 -5.0784,0.247839 -9.06137,5.807934 -13.38962,5.986997 -0.889143,0.03678 -4.060015,1.70512 -7.988877,6.89683 -4.322089,15.340302 -4.401066,14.784531 -4.959699,39.144171 z"
       style="fill:#ef3a0c;stroke:none;stroke-width:0.26458332px;stroke-linecap:butt;stroke-linejoin:miter;stroke-opacity:0" />
  </g>
  <g
     style="display:inline"
     transform="translate(0,-169.99999)"
     id="layer1">
    <path
       id="path2118"
       d="m 31.966008,212.20102 c -13.229169,12.5677 -31.96633119,32.03605 -31.96618038,39.288 1.7198e-4,8.20471 2.6459e-4,14.35436 0.007011,18.80758 0.006747,4.45322 1.06424408,7.02547 4.50382738,8.21609 5.949511,2.05945 65.644398,2.42987 84.034321,1.5307 18.389923,0.89917 78.879933,0.60475 84.829443,-1.45469 3.43958,-1.19063 3.89823,7.82607 3.89732,-8.04799 -9.2e-4,-15.87406 0.0445,-7.90763 -0.007,-18.51266 -0.035,-7.25187 -18.91202,-27.25933 -32.14119,-39.82703 1.91823,2.24895 11.37012,15.01551 9.21701,23.58151 -3.656,13.70782 -21.96781,21.26037 -32.78973,21.64829 -10.82192,0.38791 -13.27852,-2.8236 -22.060663,-4.60954 0,0 -0.388371,-0.0274 -0.980819,-0.0558 -3.014081,-0.62656 -6.007716,-0.0555 -6.500895,-0.48007 -0.529167,-0.26459 -0.859896,-3.43959 -1.124479,-4.49792 -0.362394,-1.58307 -0.448273,-2.85794 -1.256771,-4.26641 0.396875,0.52917 1.413212,3.30014 3.410645,4.71703 2.873209,2.03811 4.952245,-8.55255 3.56774,-10.43864 0.187859,2.87822 -2.872731,10.40546 -3.358451,6.273 -0.225122,-1.91532 -1.257518,-1.00742 -1.205611,-1.31206 0.163074,-0.95709 0.493065,-1.41256 0.545701,-1.93911 0.05264,-0.52653 1.128669,-2.97828 1.444578,-3.4785 0.315906,-0.50022 -1.034591,0.34128 -1.764035,-3.63307 -0.06755,-0.36803 -1.277633,-6.46739 0.132786,-6.97029 -0.239416,-0.14027 -0.464249,-0.21815 -0.678392,-0.24803 -0.642429,-0.0897 -1.334444,0.22079 -1.737151,0.6334 -0.429962,0.10763 -0.708119,0.36728 -0.987631,0.54909 0.517001,-0.027 0.758748,0.25881 1.020473,0.4991 -0.0029,0.10886 -0.0045,0.20761 -0.0099,0.32775 -0.410564,0.0988 -0.682366,-0.0325 -1.225285,0.34765 0.544247,-0.0384 0.916462,0.20683 1.177131,0.45615 -0.0081,0.10895 -0.01837,0.2223 -0.02781,0.33531 -0.340854,-0.0179 -0.652848,-0.11826 -1.161675,0.12381 0.490765,0.0477 0.868886,0.31131 1.097013,0.57499 -0.01192,0.11714 -0.02388,0.23063 -0.03701,0.34945 -0.365442,-0.007 -0.684005,-0.13347 -1.222866,0.12289 0.51808,0.0504 0.909976,0.3414 1.132597,0.61906 -0.02041,0.15737 -0.0404,0.31018 -0.06272,0.46633 -0.390441,-0.044 -0.689274,-0.24382 -1.290026,-0.0521 0.630228,0.14899 1.022468,0.64111 1.145413,0.9792 -0.02174,0.1247 -0.04429,0.24529 -0.06719,0.36565 -0.460505,-0.003 -0.756637,-0.27073 -1.422896,-0.0581 0.729176,0.17238 1.141884,0.80516 1.184755,1.12595 1.04e-4,7.9e-4 2.63e-4,8.2e-4 3.7e-4,0.002 -0.0038,0.0142 -0.0073,0.0295 -0.0111,0.0436 -0.49448,-0.0253 -0.756567,-0.35235 -1.46779,-0.19607 0.710097,0.23912 1.062643,0.90696 1.075645,1.23034 3.7e-4,0.009 0.0018,0.0124 0.0028,0.019 -0.227136,0.37528 -0.453906,0.32074 -0.911198,0.44955 -0.612282,0.17245 -0.793574,0.66478 -1.703474,0.10548 -0.365945,-0.25273 -0.694034,-0.6146 -0.983445,-1.04933 0.126114,-0.30195 0.359462,-0.62934 0.73645,-0.84202 -0.51699,-0.0114 -0.768681,0.17222 -1.043746,0.32339 -0.07139,-0.13398 -0.137658,-0.27486 -0.202717,-0.41768 0.145223,-0.30957 0.421105,-0.65166 0.848791,-0.84436 -0.530933,-0.0599 -0.798487,0.11329 -1.097346,0.2405 -0.04823,-0.13104 -0.09373,-0.26377 -0.137051,-0.39902 0.141476,-0.3367 0.478664,-0.76089 1.017029,-0.94512 -0.588091,-0.1229 -0.873166,0.0774 -1.233304,0.16941 -0.01836,-0.0763 -0.03941,-0.15121 -0.05626,-0.22805 0.17347,-0.3218 0.597046,-0.74058 1.21131,-0.83663 -0.617992,-0.24695 -0.938849,-0.0385 -1.366691,-0.0429 -0.01125,-0.0795 -0.02196,-0.15885 -0.03158,-0.23822 0.235212,-0.27979 0.735952,-0.60387 1.357549,-0.57239 -0.555654,-0.3687 -0.912859,-0.2292 -1.33189,-0.32199 0.260607,-0.25337 0.719246,-0.50735 1.272232,-0.47934 -0.528313,-0.35057 -0.876922,-0.24058 -1.270067,-0.30855 0.252978,-0.26449 0.728851,-0.54375 1.307589,-0.51444 -0.558977,-0.37091 -0.917177,-0.22788 -1.339478,-0.32408 2.42e-4,-0.002 5.82e-4,-0.004 8.46e-4,-0.005 0.186391,-0.29511 0.616285,-0.68483 1.31499,-0.64944 -0.509178,-0.36978 -0.90837,-0.36713 -1.04476,-0.46989 -0.550629,-1.00287 -1.584772,0.19667 -2.515136,-0.0765 0.854535,1.85249 0.191925,5.70961 0.975117,7.16295 0.78319,1.45334 1.044438,3.28119 1.509435,3.75163 1.45373,2.5716 -0.179836,6.28292 -0.667904,7.94236 -0.488069,1.65943 -0.628386,5.82083 -0.892969,6.35 -0.323353,0.70879 -4.628723,0.26749 -7.401099,1.11311 -6.894284,1.81864 -9.872609,4.38135 -19.610172,4.03231 -10.821917,-0.38792 -29.133724,-7.94047 -32.789729,-21.64829 -2.153108,-8.566 7.298777,-21.33256 9.217009,-23.58151 z"
       style="fill:#000000;stroke:none;stroke-width:0.26458332px;stroke-linecap:butt;stroke-linejoin:miter;stroke-opacity:1" />
    <rect
       y="262.60416"
       x="-3.8954827e-006"
       height="34.395836"
       width="177.27083"
       id="rect2724"
       style="fill:#000000;fill-opacity:1;stroke:none;stroke-width:0.18872298;stroke-miterlimit:4;stroke-dasharray:none;stroke-opacity:1" />
  </g>
  <g
     style="display:none"
     transform="translate(0,100.54167)"
     id="layer2">
    <g
       transform="translate(74.083331,-44.979168)"
       id="text891"
       style="font-style:normal;font-variant:normal;font-weight:normal;font-stretch:normal;font-size:10.58333302px;line-height:1.25;font-family:'Dumbledor 1';-inkscape-font-specification:'Dumbledor 1, ';letter-spacing:0px;word-spacing:0px;display:inline;fill:#000003;fill-opacity:1;stroke:none;stroke-width:0.07937499;stroke-miterlimit:4;stroke-dasharray:none;stroke-dashoffset:0;stroke-opacity:1;paint-order:normal"
       aria-label="Blak Wurm      Entertainment">
      <path
         id="path893"
         style="fill:#000003;fill-opacity:1;stroke:none;stroke-width:0.07937499;stroke-miterlimit:4;stroke-dasharray:none;stroke-dashoffset:0;stroke-opacity:1;paint-order:normal"
         d="m -34.237899,8.8874795 q 0,1.3642575 -1.576131,1.9326985 -0.687296,0.248047 -1.607137,0.310059 l 0.01033,0.0155 h -0.248046 q -0.07751,0 -0.237712,0.0052 -0.160197,0.0052 -0.237712,0.0052 h -0.237711 l -0.180868,-0.01033 h -0.439249 q 0.26355,-0.268718 0.294555,-0.408244 l 0.04134,-0.475423 V 6.0607788 q 0,-0.3875733 -0.227377,-0.6717936 -0.268717,-0.3307292 -0.361735,-0.3307292 l -0.01033,-0.2480469 0.160197,-0.010335 q 0.702799,-0.046509 1.07487,0.3100585 l 0.10852,0.1756999 q 0.775147,-0.6201172 1.674316,-0.6201172 0.620118,0 1.038697,0.2997233 0.475423,0.3358968 0.475423,0.9353434 0,0.6976319 -0.542603,1.2712402 1.028361,0.5581055 1.028361,1.7156575 z m -1.591634,-2.9042154 q 0,-0.7079671 -0.800984,-0.7079671 -0.341065,0 -0.640788,0.1188558 -0.392741,0.1550293 -0.434082,0.4289144 l 0.0052,0.067179 v 0.8423259 q 0.423747,0.00517 1.307414,0.08785 0.07751,0.00517 0.320394,0.056844 0.242879,-0.377238 0.242879,-0.8940023 z m 0.485759,2.924886 q 0,-0.8526611 -0.764811,-1.3539225 -0.625285,-0.4082438 -1.317749,-0.4082438 -0.268718,0 -0.273886,0.046509 v 3.3899732 q 0,0.08268 0.02584,0.160197 0.02067,0.0052 0.04651,0 0.124024,-0.02067 0.211874,-0.02067 0.72347,0 1.307414,-0.382406 0.764811,-0.5012609 0.764811,-1.4314367 z" />
      <path
         id="path895"
         style="fill:#000003;fill-opacity:1;stroke:none;stroke-width:0.07937499;stroke-miterlimit:4;stroke-dasharray:none;stroke-dashoffset:0;stroke-opacity:1;paint-order:normal"
         d="m -31.855615,11.150907 h -1.550293 q 0.211873,-0.279053 0.268717,-0.45992 l 0.03101,-0.423747 V 6.1434611 q 0,-0.3824056 -0.377238,-0.3824056 -0.134358,0 -0.377238,0.056844 0.237712,-0.3772379 0.759644,-0.5736083 0.248047,-0.093018 0.940511,-0.2377116 V 10.26724 q 0,0.361735 0.03617,0.480591 0.04134,0.139526 0.268717,0.403076 z" />
      <path
         id="path897"
         style="fill:#000003;fill-opacity:1;stroke:none;stroke-width:0.07937499;stroke-miterlimit:4;stroke-dasharray:none;stroke-dashoffset:0;stroke-opacity:1;paint-order:normal"
         d="m -27.726668,11.140572 h -1.0542 q -0.129191,0 -0.217041,-0.149862 -0.07235,-0.124023 -0.05684,-0.1757 0.0052,-0.02584 0.02584,-0.08268 -0.609782,0.454753 -1.105876,0.454753 -0.573608,0 -0.935343,-0.258382 -0.413412,-0.289388 -0.413412,-0.842326 0,-1.0231936 0.919841,-1.2712405 0.821655,-0.2222086 1.054199,-0.3255615 0.335897,-0.1498616 0.485758,-0.4289144 -0.428914,-0.2532145 -0.98702,-0.2532145 -0.465087,0 -1.18339,0.1912028 0.63562,-0.5891113 1.62264,-0.5891113 0.485759,0 1.007691,0.1756999 0.346232,0.1653646 0.346232,0.5581054 V 10.62381 q 0,0.02584 0.05168,0.09302 0.124023,0.341065 0.43925,0.423747 z m -1.297079,-0.971517 V 8.5360798 q -0.242879,0.2532145 -0.558105,0.361735 -0.63562,0.2222087 -0.713135,0.2738851 -0.294556,0.2015381 -0.294556,0.6769612 0,0.6976319 0.676962,0.6976319 0.418579,0 0.888834,-0.377238 z" />
      <path
         id="path899"
         style="fill:#000003;fill-opacity:1;stroke:none;stroke-width:0.07937499;stroke-miterlimit:4;stroke-dasharray:none;stroke-dashoffset:0;stroke-opacity:1;paint-order:normal"
         d="m -23.592554,11.14574 h -0.806153 q 0,-0.925009 -0.30489,-1.4934493 -0.392741,-0.7338053 -1.240235,-0.7338053 -0.165364,0 -0.268717,0.025838 -0.0155,-0.010335 -0.03617,-0.015503 V 10.61864 q 0,0.191203 0.3514,0.5271 h -1.498617 q 0.341065,-0.346233 0.341065,-0.5271 V 6.5362019 q 0,-0.1756998 -0.180868,-0.3307291 -0.268717,-0.2273763 -0.320393,-0.2273763 l -0.02067,-0.2480469 q 0.335897,-0.051676 0.821655,-0.3462321 0.180868,-0.1085205 0.7028,-0.4289143 l -0.02584,0.4082438 q -0.170532,0.5374348 -0.170532,0.8371581 v 2.3564453 q 0,-0.056844 0.103353,-0.056844 0.320394,0 0.800985,-0.1395264 0.568441,-0.1653645 0.568441,-0.6407877 0,-0.08785 -0.0155,-0.1963704 l 1.173055,-0.020671 -0.346233,0.6149495 q -0.341064,0.3358968 -0.83199,0.5322673 1.198893,0.4289143 1.204061,2.4959723 z" />
      <path
         id="path901"
         style="fill:#000003;fill-opacity:1;stroke:none;stroke-width:0.07937499;stroke-miterlimit:4;stroke-dasharray:none;stroke-dashoffset:0;stroke-opacity:1;paint-order:normal"
         d="m -10.254867,8.0606566 q 0,1.3229167 -0.718302,2.2169194 -0.790649,0.981852 -2.139404,0.981852 -0.06201,0 -0.191203,0.01033 -0.129191,0.01034 -0.191203,0.01034 -0.614949,0 -0.966349,-0.10852 -0.418579,-0.129191 -0.862996,-0.501262 -0.81132,0.594279 -1.97404,0.594279 -1.353923,0 -2.139404,-0.981852 -0.718303,-0.8940021 -0.718303,-2.2169187 0,-0.7803141 0.532268,-1.5812988 0.558105,-0.6821289 0.63562,-0.8009847 0,-0.046509 -0.118856,-0.1601969 l -0.583944,-0.5581055 q 0.155029,-0.1705322 0.258382,-0.1705322 h 1.333252 q 0.07752,0 0.129191,0.020671 l 0.04651,0.072347 v 0.1498616 q -1.126546,1.0800374 -1.126546,3.0282389 0,1.2040608 0.516764,1.8810221 0.578776,0.7596432 1.746664,0.7596432 0.676961,0 1.157552,-0.366903 -0.780314,-1.018025 -0.780314,-2.2737623 0,-1.3022461 0.707967,-2.3822835 0,-0.051676 -0.113689,-0.1601969 l -0.594278,-0.5581055 q 0.155029,-0.1705322 0.253214,-0.1705322 h 1.049032 q 0.217041,0 0.248046,0.217041 -0.444417,1.3332519 -0.444417,3.0540771 0,1.0490315 0.361735,1.751831 0.480591,0.9353433 1.322917,0.9353433 h 0.04651 q 1.11621,0 1.741495,-0.8164875 0.470256,-0.6149495 0.470256,-1.8758545 0,-1.9482014 -1.126546,-3.0282388 V 4.8825561 l 0.04651,-0.072347 q 0.04651,-0.02067 0.129191,-0.02067 h 1.333252 q 0.103353,0 0.258383,0.1705322 l -0.583944,0.5581054 q -0.118856,0.1136882 -0.118856,0.160197 0.07235,0.1188558 0.63562,0.8009847 0.532267,0.8009846 0.532267,1.5812987 z" />
      <path
         id="path903"
         style="fill:#000003;fill-opacity:1;stroke:none;stroke-width:0.07937499;stroke-miterlimit:4;stroke-dasharray:none;stroke-dashoffset:0;stroke-opacity:1;paint-order:normal"
         d="m -6.1517589,9.5696084 q 0,0.8526616 -0.449585,1.2557376 -0.4134114,0.366902 -1.2867431,0.403076 -0.8733317,0.03617 -1.3694254,-0.315226 -0.2532145,-0.180868 -0.3979086,-0.583944 -0.129191,-0.3565674 -0.129191,-0.7131348 0,-0.3565674 0.3772379,-1.1782226 l 0.015503,-0.093018 q -0.02067,-0.1291911 -0.3410644,-0.4444173 l -0.098185,-0.289388 h 1.3797607 l -0.015503,0.361735 q -0.4237468,0.7803141 -0.4237468,1.6536458 0,0.7234709 0.2067057,0.9043379 0.2118734,0.26355 0.8991699,0.28422 l 0.020671,-0.0052 q 0.3255615,-0.124024 0.4547526,-0.294556 0.025838,-0.04134 0.08785,-0.124023 v 0.03101 l 0.00517,-0.01034 q 0.2222086,-0.4444175 0.2222086,-0.842326 0,-0.8578287 -0.5219319,-1.6329752 l -0.072347,-0.3720703 h 1.390096 l -0.08785,0.289388 q -0.3358968,0.3152262 -0.3410644,0.4444173 l 0.015503,0.082682 0.3152262,0.5167643 q 0.1446941,0.3203939 0.1446941,0.6717936 z" />
      <path
         id="path905"
         style="fill:#000003;fill-opacity:1;stroke:none;stroke-width:0.07937499;stroke-miterlimit:4;stroke-dasharray:none;stroke-dashoffset:0;stroke-opacity:1;paint-order:normal"
         d="m -2.3121987,8.2932006 q 0,0.8474934 -1.405599,1.1937255 0.3513998,-0.2842203 0.4650879,-0.4185791 0.1808675,-0.2118733 0.2067057,-0.3772379 0.036174,-0.2118734 -0.046509,-0.3875732 -0.1860351,-0.232544 -0.273885,-0.2738851 -0.1860352,-0.1085205 -0.4444173,-0.1085205 -0.6872966,0 -0.6872966,0.2325439 v 2.4081218 l 0.031006,0.222209 q 0.010335,0.07751 0.3203939,0.361735 h -1.5089518 l 0.2118733,-0.206706 q 0.098185,-0.09818 0.1188558,-0.242879 l 0.020671,-2.3409427 q 0.00517,-0.4030762 -0.4650879,-0.5529378 l 0.041341,-0.062012 q 0.041341,-0.062012 0.041341,-0.1395264 l 0.289388,-0.031006 q 0.3255616,-0.036174 0.6201172,0.1291911 l 0.08785,0.062012 q 0.4599203,-0.3203938 1.100708,-0.3203938 0.4650879,0 0.8268229,0.1912028 0.449585,0.2377115 0.4495849,0.6614584 z" />
      <path
         id="path907"
         style="fill:#000003;fill-opacity:1;stroke:none;stroke-width:0.07937499;stroke-miterlimit:4;stroke-dasharray:none;stroke-dashoffset:0;stroke-opacity:1;paint-order:normal"
         d="m 3.9871557,9.2182087 q 0,0.3513997 -0.144694,0.6717936 l -0.3152262,0.5167647 -0.015503,0.08268 q 0.00517,0.129191 0.3410644,0.444417 l 0.08785,0.289388 H 2.550551 l 0.072347,-0.37207 q 0.4702555,-0.697632 0.4702555,-1.6329753 0,-0.4185791 -0.1705322,-0.738973 -0.2170411,-0.4082438 -0.5891114,-0.4082438 -0.5012613,0 -0.8423258,0.3669027 0.160197,0.4030761 0.160197,0.7803141 0,0.3565674 -0.377238,1.1782223 l -0.015503,0.09302 q 0.00517,0.129191 0.3410644,0.444417 l 0.098185,0.289388 H 0.31812914 l 0.0155029,-0.361735 Q 0.7573788,10.081205 0.7573788,9.2078734 q 0,-0.4650879 -0.20153807,-0.7751465 -0.23254394,-0.361735 -0.67696125,-0.361735 -0.23254394,0 -0.54260252,0.1912028 -0.26871744,0.1653646 -0.26871744,0.2842204 v 1.9533689 q 0,0.155029 0.0981852,0.279053 l 0.29455565,0.19637 0.0465088,0.248047 H -2.0899925 l 0.2428792,-0.232544 q 0.1085205,-0.124023 0.1085205,-0.28422 V 8.1795124 q 0,-0.1860351 -0.3462321,-0.5219319 h 1.15238442 v 0.2842203 q 0.56844074,-0.3513997 1.15238441,-0.3513997 0.52193195,0 0.90433757,0.3307292 l 0.1601969,0.1912028 q 0.5115967,-0.521932 1.317749,-0.521932 0.6769612,0 1.0490315,0.4909261 0.3358968,0.4392497 0.3358968,1.1368815 z" />
      <path
         id="path909"
         style="fill:#000003;fill-opacity:1;stroke:none;stroke-width:0.07937499;stroke-miterlimit:4;stroke-dasharray:none;stroke-dashoffset:0;stroke-opacity:1;paint-order:normal"
         d="m 27.169203,10.995878 q -0.09302,0.170532 -0.237711,0.170532 h -4.020427 l -0.191202,-0.180867 0.428914,-0.237712 q 0.139526,-0.144694 0.1757,-0.232544 0,-0.06718 0.0155,-0.206706 l 0.0052,-0.01033 V 5.637032 q 0,-0.2222086 -0.201538,-0.4237467 L 22.714695,4.9755737 22.905898,4.7947062 h 4.020426 q 0.144694,0 0.237712,0.1705322 -0.237712,0.3824056 -0.237712,0.521932 l 0.04651,0.3513997 -0.310059,-0.098185 Q 26.182183,5.3786499 25.448378,5.2494588 l -0.258382,-0.020671 -0.26355,-0.010335 -0.428914,0.010335 -0.206706,0.020671 V 7.259672 h 2.651001 L 26.559421,7.9056273 26.037489,8.4017211 Q 25.567234,7.766101 24.600885,7.7247598 q -0.02067,0 -0.118856,-0.00517 -0.103353,-0.00517 -0.149862,0.010335 -0.04651,0.010335 -0.04134,0.041341 l 0.0052,2.9403892 0.206705,0.02067 0.428915,0.01033 0.26355,-0.01033 0.258382,-0.02067 q 0.733805,-0.129192 1.214396,-0.490927 l 0.310059,-0.09819 -0.04651,0.3514 q 0,0.139526 0.237711,0.521932 z" />
      <path
         id="path911"
         style="fill:#000003;fill-opacity:1;stroke:none;stroke-width:0.07937499;stroke-miterlimit:4;stroke-dasharray:none;stroke-dashoffset:0;stroke-opacity:1;paint-order:normal"
         d="m 31.473853,11.212919 h -1.379761 l 0.0155,-0.361735 q 0.423747,-0.780314 0.423747,-1.6536459 0,-1.1368815 -1.033529,-1.1368815 -0.232544,0 -0.542603,0.1912028 Q 28.68849,8.417224 28.68849,8.5360798 v 1.9533692 q 0,0.155029 0.09818,0.279053 l 0.294556,0.19637 0.04651,0.248047 h -1.596802 l 0.242879,-0.232544 q 0.108521,-0.124023 0.108521,-0.28422 V 8.1691771 q 0,-0.1860351 -0.346232,-0.5219319 h 1.152384 v 0.2842204 q 0.568441,-0.3513998 1.307414,-0.3513998 0.795817,0 1.302246,0.8319906 0.129191,0.3462321 0.129191,0.795817 0,0.3565674 -0.377238,1.1782226 l -0.0155,0.09302 q 0.0052,0.129191 0.341064,0.444417 z" />
      <path
         id="path913"
         style="fill:#000003;fill-opacity:1;stroke:none;stroke-width:0.07937499;stroke-miterlimit:4;stroke-dasharray:none;stroke-dashoffset:0;stroke-opacity:1;paint-order:normal"
         d="m 35.044689,11.14574 q -0.232544,0.0155 -0.43925,0.0155 -0.997355,0 -1.415934,-0.310058 -0.490926,-0.361735 -0.490926,-1.3177491 h 0.0052 L 32.708979,7.98314 H 31.851151 L 32.00618,7.6162373 q 0.103353,-0.077515 0.103353,-0.2067057 0,-0.031006 -0.0052,-0.093018 -0.0052,-0.067179 -0.0052,-0.098185 0,-0.1033528 0.04134,-0.1860351 0.201538,0.3772379 0.56844,0.434082 l 0.0052,-0.9456787 q 0,-0.3203939 -0.217041,-0.4289144 -0.139526,-0.041341 -0.201538,-0.082682 -0.09818,-0.041341 -0.320394,-0.3048909 h 1.545125 v 1.7983398 h 1.51412 l -0.26355,0.4805908 h -1.25057 v 1.6381428 q 0,0.6304521 0.206706,0.8474931 0.258382,0.273885 0.315226,0.310059 0.279053,0.180867 1.002523,0.366903 z" />
      <path
         id="path915"
         style="fill:#000003;fill-opacity:1;stroke:none;stroke-width:0.07937499;stroke-miterlimit:4;stroke-dasharray:none;stroke-dashoffset:0;stroke-opacity:1;paint-order:normal"
         d="m 39.028947,9.7401406 q -0.532267,1.4986164 -1.891357,1.4986164 -0.785482,0 -1.353923,-0.542602 -0.563273,-0.547771 -0.563273,-1.3280847 0,-0.8578287 0.506429,-1.3642577 0.511597,-0.5115967 1.369426,-0.5115967 0.65629,0 1.049031,0.3358968 0.346232,0.2997233 0.583944,0.9508463 l -2.635498,0.4702555 -0.01033,0.062012 q 0.01033,-0.051676 0.02584,-0.098185 0.0052,0.020671 0.0052,0.062012 0,0.6149495 0.3514,1.0335285 0.37207,0.449585 0.971517,0.449585 0.485758,0 0.930176,-0.294555 0.423746,-0.279053 0.661458,-0.7234707 z M 37.830054,8.4740681 Q 37.768042,8.1950154 37.50966,8.0296508 37.256446,7.8591186 36.972225,7.8952921 36.538143,7.9521361 36.321102,8.2983682 36.207414,8.561918 36.093726,8.8203002 Z" />
      <path
         id="path917"
         style="fill:#000003;fill-opacity:1;stroke:none;stroke-width:0.07937499;stroke-miterlimit:4;stroke-dasharray:none;stroke-dashoffset:0;stroke-opacity:1;paint-order:normal"
         d="m 42.853001,8.2932006 q 0,0.8474934 -1.405599,1.1937255 Q 41.798801,9.2027058 41.912489,9.068347 42.093357,8.8564737 42.119195,8.6911091 42.155365,8.4792357 42.072685,8.3035359 41.88665,8.0709919 41.7988,8.0296508 41.612765,7.9211303 41.354383,7.9211303 q -0.687296,0 -0.687296,0.2325439 v 2.4081218 l 0.03101,0.222209 q 0.01034,0.07751 0.320394,0.361735 h -1.508952 l 0.211874,-0.206706 q 0.09819,-0.09818 0.118856,-0.242879 l 0.02067,-2.3409427 q 0.0052,-0.4030762 -0.465088,-0.5529378 l 0.04134,-0.062012 q 0.04134,-0.062012 0.04134,-0.1395264 l 0.289388,-0.031006 q 0.325561,-0.036174 0.620117,0.1291911 l 0.08785,0.062012 q 0.45992,-0.3203938 1.100708,-0.3203938 0.465088,0 0.826823,0.1912028 0.449585,0.2377115 0.449585,0.6614583 z" />
      <path
         id="path919"
         style="fill:#000003;fill-opacity:1;stroke:none;stroke-width:0.07937499;stroke-miterlimit:4;stroke-dasharray:none;stroke-dashoffset:0;stroke-opacity:1;paint-order:normal"
         d="m 46.26881,11.14574 q -0.232544,0.0155 -0.439249,0.0155 -0.997356,0 -1.415935,-0.310058 Q 43.9227,10.489449 43.9227,9.5334349 h 0.0052 L 43.9331,7.983142 H 43.075271 L 43.2303,7.6162393 q 0.103353,-0.077515 0.103353,-0.2067057 0,-0.031006 -0.0052,-0.093018 -0.0052,-0.067179 -0.0052,-0.098185 0,-0.1033528 0.04134,-0.1860351 0.201538,0.3772379 0.568441,0.434082 l 0.0052,-0.9456787 q 0,-0.3203939 -0.217041,-0.4289144 -0.139526,-0.041341 -0.201538,-0.082682 -0.09819,-0.041341 -0.320394,-0.3048909 h 1.545125 v 1.7983398 h 1.51412 l -0.26355,0.4805908 h -1.25057 v 1.6381428 q 0,0.6304521 0.206706,0.8474931 0.258382,0.273885 0.315226,0.310059 0.279053,0.180867 1.002523,0.366903 z" />
      <path
         id="path921"
         style="fill:#000003;fill-opacity:1;stroke:none;stroke-width:0.07937499;stroke-miterlimit:4;stroke-dasharray:none;stroke-dashoffset:0;stroke-opacity:1;paint-order:normal"
         d="m 50.201392,11.140572 h -1.054199 q -0.129192,0 -0.217041,-0.149862 -0.07235,-0.124023 -0.05685,-0.1757 0.0052,-0.02584 0.02584,-0.08268 -0.609782,0.454753 -1.105876,0.454753 -0.573608,0 -0.935343,-0.258382 -0.413412,-0.289388 -0.413412,-0.842326 0,-1.0231936 0.919841,-1.2712405 0.821655,-0.2222086 1.054199,-0.3255615 0.335897,-0.1498616 0.485758,-0.4289144 -0.428914,-0.2532145 -0.98702,-0.2532145 -0.465087,0 -1.18339,0.1912028 0.63562,-0.5891113 1.62264,-0.5891113 0.485759,0 1.007691,0.1756999 0.346232,0.1653646 0.346232,0.5581054 V 10.62381 q 0,0.02584 0.05168,0.09302 0.124024,0.341065 0.43925,0.423747 z M 48.904313,10.169055 V 8.5360798 q -0.242879,0.2532145 -0.558105,0.361735 -0.63562,0.2222087 -0.713135,0.2738851 -0.294556,0.2015381 -0.294556,0.6769612 0,0.6976319 0.676962,0.6976319 0.418579,0 0.888834,-0.377238 z" />
      <path
         id="path923"
         style="fill:#000003;fill-opacity:1;stroke:none;stroke-width:0.07937499;stroke-miterlimit:4;stroke-dasharray:none;stroke-dashoffset:0;stroke-opacity:1;paint-order:normal"
         d="m 51.84987,6.520699 q 0,0.361735 -0.521932,0.4134115 -0.490926,0 -0.542602,-0.4030762 0,-0.3875732 0.527099,-0.4082438 0.475423,-0.020671 0.537435,0.3979085 z m 0.37207,4.625041 h -1.46761 l 0.237711,-0.232544 q 0.09819,-0.124024 0.09819,-0.284221 V 8.4068887 q 0,-0.3203938 -0.217041,-0.4289143 -0.139526,-0.041341 -0.201538,-0.082682 -0.09819,-0.041341 -0.320393,-0.304891 h 1.545125 v 3.0385736 q 0,0.124024 0.03101,0.191203 0.0155,0.06201 0.294555,0.325562 z" />
      <path
         id="path925"
         style="fill:#000003;fill-opacity:1;stroke:none;stroke-width:0.07937499;stroke-miterlimit:4;stroke-dasharray:none;stroke-dashoffset:0;stroke-opacity:1;paint-order:normal"
         d="m 56.526587,11.212919 h -1.379761 l 0.0155,-0.361735 q 0.423747,-0.780314 0.423747,-1.6536459 0,-1.1368815 -1.033529,-1.1368815 -0.232544,0 -0.542602,0.1912028 -0.268718,0.1653646 -0.268718,0.2842204 v 1.9533692 q 0,0.155029 0.09819,0.279053 l 0.294555,0.19637 0.04651,0.248047 h -1.596802 l 0.24288,-0.232544 q 0.10852,-0.124023 0.10852,-0.28422 V 8.1691771 q 0,-0.1860351 -0.346232,-0.5219319 h 1.152384 v 0.2842204 q 0.568441,-0.3513998 1.307414,-0.3513998 0.795817,0 1.302246,0.8319906 0.129191,0.3462321 0.129191,0.795817 0,0.3565674 -0.377238,1.1782226 l -0.0155,0.09302 q 0.0052,0.129191 0.341065,0.444417 z" />
      <path
         id="path927"
         style="fill:#000003;fill-opacity:1;stroke:none;stroke-width:0.07937499;stroke-miterlimit:4;stroke-dasharray:none;stroke-dashoffset:0;stroke-opacity:1;paint-order:normal"
         d="m 62.980968,9.2182087 q 0,0.3513997 -0.144694,0.6717936 l -0.315226,0.5167647 -0.0155,0.08268 q 0.0052,0.129191 0.341065,0.444417 l 0.08785,0.289388 h -1.390095 l 0.07235,-0.37207 q 0.470255,-0.697632 0.470255,-1.6329753 0,-0.4185791 -0.170532,-0.738973 Q 61.6994,8.0709899 61.32733,8.0709899 q -0.501262,0 -0.842326,0.3669027 0.160197,0.4030761 0.160197,0.7803141 0,0.3565674 -0.377238,1.1782223 l -0.0155,0.09302 q 0.0052,0.129191 0.341064,0.444417 l 0.09819,0.289388 h -1.37976 l 0.0155,-0.361735 q 0.423746,-0.780314 0.423746,-1.6536456 0,-0.4650879 -0.201538,-0.7751465 -0.232544,-0.361735 -0.676961,-0.361735 -0.232544,0 -0.542602,0.1912028 -0.268718,0.1653646 -0.268718,0.2842204 v 1.9533689 q 0,0.155029 0.09819,0.279053 l 0.294556,0.19637 0.04651,0.248047 H 56.90382 L 57.146699,10.99071 Q 57.25522,10.866687 57.25522,10.70649 V 8.1795124 q 0,-0.1860351 -0.346232,-0.5219319 h 1.152384 v 0.2842203 q 0.568441,-0.3513997 1.152384,-0.3513997 0.521932,0 0.904338,0.3307292 l 0.160197,0.1912028 q 0.511597,-0.521932 1.317749,-0.521932 0.676961,0 1.049031,0.4909261 0.335897,0.4392497 0.335897,1.1368815 z" />
      <path
         id="path929"
         style="fill:#000003;fill-opacity:1;stroke:none;stroke-width:0.07937499;stroke-miterlimit:4;stroke-dasharray:none;stroke-dashoffset:0;stroke-opacity:1;paint-order:normal"
         d="m 67.161592,9.7401406 q -0.532268,1.4986164 -1.891358,1.4986164 -0.785481,0 -1.353922,-0.542602 -0.563273,-0.547771 -0.563273,-1.3280847 0,-0.8578287 0.506429,-1.3642577 0.511596,-0.5115967 1.369425,-0.5115967 0.656291,0 1.049032,0.3358968 0.346232,0.2997233 0.583943,0.9508463 l -2.635498,0.4702555 -0.01033,0.062012 q 0.01033,-0.051676 0.02584,-0.098185 0.0052,0.020671 0.0052,0.062012 0,0.6149495 0.3514,1.0335285 0.37207,0.449585 0.971517,0.449585 0.485758,0 0.930175,-0.294555 0.423747,-0.279053 0.661459,-0.7234707 z M 65.962699,8.4740681 Q 65.900687,8.1950154 65.642305,8.0296508 65.38909,7.8591186 65.10487,7.8952921 64.670788,7.9521361 64.453747,8.2983682 64.340059,8.561918 64.22637,8.8203002 Z" />
      <path
         id="path931"
         style="fill:#000003;fill-opacity:1;stroke:none;stroke-width:0.07937499;stroke-miterlimit:4;stroke-dasharray:none;stroke-dashoffset:0;stroke-opacity:1;paint-order:normal"
         d="m 71.471411,11.212919 h -1.37976 l 0.0155,-0.361735 Q 70.5309,10.07087 70.5309,9.1975381 q 0,-1.1368815 -1.033528,-1.1368815 -0.232544,0 -0.542603,0.1912028 -0.268717,0.1653646 -0.268717,0.2842204 v 1.9533692 q 0,0.155029 0.09819,0.279053 l 0.294556,0.19637 0.04651,0.248047 H 67.5285 l 0.242879,-0.232544 q 0.10852,-0.124023 0.10852,-0.28422 V 8.1691771 q 0,-0.1860351 -0.346232,-0.5219319 h 1.152385 v 0.2842204 q 0.56844,-0.3513998 1.307413,-0.3513998 0.795817,0 1.302246,0.8319906 0.129191,0.3462321 0.129191,0.795817 0,0.3565674 -0.377237,1.1782226 l -0.0155,0.09302 q 0.0052,0.129191 0.341064,0.444417 z" />
      <path
         id="path933"
         style="fill:#000003;fill-opacity:1;stroke:none;stroke-width:0.07937499;stroke-miterlimit:4;stroke-dasharray:none;stroke-dashoffset:0;stroke-opacity:1;paint-order:normal"
         d="m 75.042248,11.14574 q -0.232544,0.0155 -0.43925,0.0155 -0.997355,0 -1.415934,-0.310058 -0.490926,-0.361735 -0.490926,-1.3177491 h 0.0052 l 0.0052,-1.5502929 h -0.857829 l 0.15503,-0.3669027 q 0.103352,-0.077515 0.103352,-0.2067057 0,-0.031006 -0.0052,-0.093018 -0.0052,-0.067179 -0.0052,-0.098185 0,-0.1033528 0.04134,-0.1860351 0.201538,0.3772379 0.568441,0.434082 l 0.0052,-0.9456787 q 0,-0.3203939 -0.217041,-0.4289144 -0.139527,-0.041341 -0.201538,-0.082682 -0.09819,-0.041341 -0.320394,-0.3048909 h 1.545125 v 1.7983398 h 1.514119 l -0.26358,0.4805927 h -1.25057 v 1.6381428 q 0,0.6304522 0.206706,0.8474932 0.258382,0.273885 0.315226,0.310059 0.279053,0.180867 1.002523,0.366903 z" />
    </g>
  </g>
</svg>
