<svg xmlns="http://www.w3.org/2000/svg" xmlns:xlink="http://www.w3.org/1999/xlink" width="670" height="480" viewBox="0 0 177.3 127">
  <defs>
    <linearGradient id="a">
      <stop offset="0"/>
      <stop offset="1" stop-color="#9b1a0a"/>
    </linearGradient>
    <linearGradient xlink:href="#a" id="b" x1="50.3" y1="316" x2="50.3" y2="246.9" gradientUnits="userSpaceOnUse" gradientTransform="matrix(1 0 0 1.69634 74 -510.3)"/>
  </defs>
  <path fill="url(#b)" d="M0-87.3h177.3v114H0z" transform="translate(0 100.5)"/>
  <path d="M87 83.3C86 65 88 49 83.8 39c-1.7-3.3-3.8-10-7.8-9.2-4 .8-22.5 6-25.6 5.3-3-.6-15.3-8.4-18.7-8.6-3.3-.3-16.9 2.8-19.2 4.4-2.3 1.6-11 22-7.5 24 3.3 2 7.4-2.4 3.7-6.4 3.4 1.5 4.4 3.3 4.6 5 .1 1.7-7 10.9-10 10.6-3-.4-3.3-5.9-3.3-5.9V0h177.3v63.5s-1 3.1-3.1 5c2.3-15.6-.3-15.1-2.2-20.2-.9-2.3-3.3-7.9-7-8.3-3.6-.4-10.4.8-14.7-2.4a53.4 53.4 0 0 0-16.5-7.7c-8-2.7-15.2 1.2-20.2 1.4-5.1.3-8.8-3.3-11.4-3.2-2.7 0-9 1-11.5 12.5A168.5 168.5 0 0 0 87 83.3z" fill="#ef3a0c"/>
  <path d="M50.8 47c-31.2-.4-47 68.6-50.8 80h86.5c45.8 0 56.4 0 90.8.3-7.5-25.3-25.2-79-55.6-79.4 5.6 1.7 7.1 14 2.7 20.9-2.8 4.3 0 0-5.3 2.6 5.3 0 2.6 2.7-2.2 6.4-8 3.7-17.1 3.5-24.9 4.5-.5-.3-.9-3.5-1.1-4.5l-.8-3.3c.4.6 1 2.3 3 3.7 2.8 2 4.9-8.5 3.5-10.4.2 2.9-2.9 10.4-3.4 6.3-.2-2-1.2-1-1.2-1.3l.6-2c0-.5 1.1-3 1.4-3.5.3-.5-1 .4-1.7-3.6-.1-.4-1.3-6.5.1-7a1.8 1.8 0 0 0-.7-.2c-.6-.1-1.3.2-1.7.6-.4.1-.7.4-1 .6.5 0 .8.2 1 .5v.3c-.4.1-.7 0-1.2.3.5 0 .9.3 1.2.5v.3c-.4 0-.7 0-1.2.2.5 0 .8.3 1 .5v.4c-.3 0-.7-.1-1.2.1.5 0 1 .4 1.1.6v.5c-.4 0-.7-.2-1.3 0 .6 0 1 .6 1.1 1v.3c-.5 0-.8-.3-1.5 0 .8.1 1.2.7 1.2 1v.1c-.5 0-.7-.3-1.5-.2.8.2 1.1 1 1.1 1.2-.2.4-.4.4-.9.5-.6.2-.8.7-1.7.1-.4-.2-.7-.6-1-1 .2-.3.4-.7.8-.9-.6 0-.8.2-1 .3a7.5 7.5 0 0 1-.3-.4c.2-.3.4-.6.9-.8-.6 0-.8 0-1.1.2a9.9 9.9 0 0 1-.2-.4 1.7 1.7 0 0 1 1-1l-1.2.2V62c.1-.3.6-.7 1.2-.8-.6-.3-1 0-1.4 0a12 12 0 0 1 0-.3c.2-.3.7-.6 1.3-.6-.5-.3-.9-.2-1.3-.3.3-.2.7-.5 1.3-.5-.6-.3-.9-.2-1.3-.3a1.7 1.7 0 0 1 1.3-.5c-.5-.4-1-.2-1.3-.3a1.4 1.4 0 0 1 1.3-.7l-1-.4c-.6-1-1.6.2-2.6-.1.9 1.8.3 5.7 1 7.1 1 2 .8 4 .9 5.7 0 1.7.6 1 .4 3-.2 1.9-1 8.9-1.3 9.4-5.4-.8-18-5.1-22.3-7.5-4.2-2.4-4.7-6 .6-6-5.3-2.7-5.3 2.6-8.1-1.6-4.5-6.8-2.8-18 2.8-19.6a22.3 22.3 0 0 0-4.8-.6z"/>
</svg>
